<svg width="856" height="818" viewBox="0 0 856 818" fill="none" xmlns="http://www.w3.org/2000/svg">
<path d="M242.424 1.12298C223.139 7.27887 209.427 27.2855 204.982 36.5193C178.31 66.8214 136.765 180.156 128.045 239.15C119.326 298.144 168.565 336.105 149.587 404.846C130.61 473.586 210.111 630.048 242.937 699.815C275.763 769.582 271.147 836.783 434.253 813.186C597.358 789.588 640.955 578.236 699.427 437.677C746.205 325.229 727.124 243.083 711.737 216.065C683.185 153.31 612.848 25.336 559.916 15.4859C493.75 3.17331 362.958 27.7985 329.619 27.7985C296.28 27.7985 266.531 -6.57187 242.424 1.12298Z" fill="#4A4A4A"/>
<path d="M237.493 22.6784C219.031 28.5703 205.905 47.7192 201.65 56.5571C176.118 85.56 136.348 194.035 128.001 250.5C119.654 306.965 166.789 343.298 148.622 409.092C130.456 474.885 206.56 624.639 237.984 691.415C269.408 758.19 264.989 822.511 421.125 799.925C577.262 777.339 618.997 575.049 674.971 440.516C719.75 332.889 701.484 254.264 686.755 228.405C659.422 168.34 592.09 45.8532 541.42 36.4255C478.081 24.6408 352.877 48.2102 320.962 48.2102C289.047 48.2102 260.57 15.3134 237.493 22.6784Z" fill="#74C0D0"/>
<path d="M686.755 228.405C659.422 168.34 592.09 45.8532 541.42 36.4255C497.557 28.2644 424.025 37.0583 372.353 43.2379C349.409 45.9817 330.776 48.2102 320.962 48.2102C295.928 65.2004 260.879 146.218 320.962 169.393C350.301 176.165 405.315 201.867 390.665 250.5C361.287 330.586 330.196 304.555 292.466 356.954C240.675 428.879 181.122 534.126 229.127 569.065C295.51 617.379 310.148 750.618 304.741 794.013C328.501 804.831 364.108 808.173 421.125 799.925C549.481 781.358 600.524 641.346 645.721 517.368C655.503 490.535 665.011 464.453 674.971 440.516C719.75 332.889 701.484 254.264 686.755 228.405Z" fill="url(#paint0_linear)"/>
<path d="M453.797 422.258C507.714 422.258 526.809 365.676 529.617 337.386C522.597 329.67 496.762 314.239 449.585 314.239C402.408 314.239 376.573 332.242 369.552 341.243C375.169 368.248 399.88 422.258 453.797 422.258Z" fill="#782109"/>
<path fill-rule="evenodd" clip-rule="evenodd" d="M449.585 314.239C422.631 314.239 402.644 320.115 389.152 326.832C392.963 343.911 410.385 378.068 449.585 378.068C466.644 378.595 500.762 368.035 500.762 321.576C487.919 317.4 470.938 314.239 449.585 314.239Z" fill="white"/>
<path d="M195.499 374.123C158.66 364.252 156.066 321.742 159.375 301.721C165.597 297.686 186.1 291.775 218.334 300.413C225.756 302.401 232.229 304.841 237.834 307.51C240.972 318.586 246.097 345.543 241.495 364.764C229.186 373.578 213.538 378.957 195.499 374.123Z" fill="#782109"/>
<path fill-rule="evenodd" clip-rule="evenodd" d="M237.834 307.51C239.468 313.278 241.641 323.353 242.698 334.399C197.219 349.879 180.409 315.554 177.689 296.456C187.771 295.355 201.442 295.886 218.334 300.413C225.756 302.401 232.229 304.841 237.834 307.51Z" fill="white"/>
<path d="M317.016 519.965C316.034 525.202 311.222 535.677 303.759 535.677H276.508L294.426 613.254C294.611 615.486 298.049 617.456 303.5 619.609C312.538 623.179 327.109 627.255 341.565 633.876L360.714 642.647C367.097 645.57 376.524 654.365 363.169 666.157L358.29 670.466C354.686 674.716 350.011 678.51 346.475 680.898L358.29 670.466C363.189 664.689 366.109 658.07 361.5 653C353.5 644.2 319.5 627.072 303.5 619.609C298.049 617.456 294.611 615.486 294.426 613.254L276.508 535.677H249.258C246.967 534.04 242.384 528.606 242.384 519.965V358.918C242.71 347.837 241.205 333.897 236.697 319.957C225.357 284.895 202.042 240.358 134.027 250.757L135.5 237.5C169.679 239.677 232.147 266.792 236.697 319.957C241.205 333.897 242.71 347.837 242.384 358.918V519.965C242.384 528.606 246.967 534.04 249.258 535.677H276.508C296.345 535.677 302.94 525.202 303.759 519.965V439C303.759 407 309.18 383.667 311.89 376L326.451 339.769C330.711 331.709 336.452 324.398 344.02 319.957C357.114 297.92 412.956 250.899 531.581 239.115L539.928 260.228C482.856 271.596 390.431 286.204 344.02 319.957C336.452 324.398 330.711 331.709 326.451 339.769C318.287 362.551 316.202 386.905 316.18 396.234L317.016 519.965Z" fill="#4A4A4A"/>
<path d="M349 807.5L323.422 723.237C318.335 706.863 342.236 684.706 346.475 680.898M276.508 535.677H249.258C246.967 534.04 242.384 528.606 242.384 519.965C242.384 511.323 242.384 409 242.384 358.918C242.71 347.837 241.205 333.897 236.697 319.957M276.508 535.677H303.759C311.222 535.677 316.034 525.202 317.016 519.965L316.18 396.234C316.202 386.905 318.287 362.551 326.451 339.769M276.508 535.677L294.426 613.254C294.611 615.486 298.049 617.456 303.5 619.609M276.508 535.677C296.345 535.677 302.94 525.202 303.759 519.965V439C303.759 407 309.18 383.667 311.89 376L326.451 339.769M346.475 680.898L363.169 666.157C376.524 654.365 367.097 645.57 360.714 642.647L341.565 633.876C327.109 627.255 312.538 623.179 303.5 619.609M346.475 680.898C354.817 675.265 369.5 661.8 361.5 653C353.5 644.2 319.5 627.072 303.5 619.609M344.02 319.957C390.431 286.204 482.856 271.596 539.928 260.228L531.581 239.115C412.956 250.899 357.114 297.92 344.02 319.957ZM344.02 319.957C336.452 324.398 330.711 331.709 326.451 339.769M236.697 319.957C225.357 284.895 202.042 240.358 134.027 250.757L135.5 237.5C169.679 239.677 232.147 266.792 236.697 319.957Z" stroke="#4A4A4A" stroke-width="12"/>
<defs>
<linearGradient id="paint0_linear" x1="703" y1="413" x2="281.5" y2="260" gradientUnits="userSpaceOnUse">
<stop stop-color="#460F00"/>
<stop offset="0.0729167" stop-color="#C42A00"/>
<stop offset="0.197917" stop-color="#F5572C"/>
<stop offset="0.369453" stop-color="#F8894B"/>
<stop offset="0.583333" stop-color="#FFAF00"/>
<stop offset="0.760417" stop-color="#FFC52B"/>
<stop offset="1" stop-color="#FFEAB4"/>
</linearGradient>
</defs>
</svg>
