<?xml version="1.0" standalone="no"?>
<!DOCTYPE svg PUBLIC "-//W3C//DTD SVG 20010904//EN"
 "http://www.w3.org/TR/2001/REC-SVG-20010904/DTD/svg10.dtd">
<svg version="1.0" xmlns="http://www.w3.org/2000/svg"
 width="1562.000000pt" height="1562.000000pt" viewBox="0 0 1562.000000 1562.000000"
 preserveAspectRatio="xMidYMid meet">
<metadata>
Created by potrace 1.11, written by Peter Selinger 2001-2013
</metadata>
<g transform="translate(0.000000,1562.000000) scale(0.100000,-0.100000)"
fill="#000000" stroke="none">
<path d="M7260 13554 c-525 -62 -918 -260 -1271 -640 -218 -236 -424 -592
-558 -969 -18 -50 -29 -65 -65 -88 -98 -62 -290 -239 -636 -586 -329 -329
-772 -796 -769 -810 1 -3 24 -27 53 -52 l51 -47 171 187 c348 378 864 903 864
878 0 -7 -431 -848 -575 -1122 -694 -1321 -1002 -2154 -1101 -2990 -20 -166
-23 -629 -5 -850 28 -351 120 -731 266 -1100 61 -156 226 -490 310 -630 389
-646 878 -1120 1445 -1404 498 -249 1007 -335 1572 -266 151 19 187 30 193 58
2 12 9 157 16 322 6 165 16 431 23 592 6 160 13 293 16 296 3 2 194 100 425
217 231 117 435 224 453 237 43 32 62 72 62 129 0 53 -27 109 -68 139 -15 11
-76 46 -137 78 -60 32 -251 137 -422 234 l-313 176 0 413 0 414 143 0 c216 0
286 30 344 148 l28 57 6 1160 c5 1144 5 1161 27 1247 98 399 299 738 546 924
155 117 416 206 726 249 141 19 560 30 690 17 52 -5 96 -8 97 -8 6 4 20 142
14 148 -13 15 -372 26 -547 17 -392 -20 -708 -94 -944 -220 -350 -188 -616
-595 -738 -1129 l-27 -115 -2 -1127 c-2 -977 -4 -1130 -17 -1156 -30 -58 -19
-57 -401 -60 l-353 -3 -13 33 c-11 27 -15 267 -20 1268 -4 679 -10 1251 -13
1270 -4 19 -14 82 -22 140 -93 640 -424 1051 -946 1175 -163 38 -280 48 -482
42 -181 -6 -344 -26 -523 -66 -51 -12 -97 -21 -103 -21 -6 0 37 91 95 203 58
111 173 335 254 497 82 162 171 335 199 383 80 139 218 321 260 344 41 23 462
160 590 193 295 74 856 120 1488 120 l362 0 6 23 c3 12 6 45 6 73 0 45 -3 52
-22 58 -61 16 -827 -1 -1118 -24 -195 -16 -502 -56 -650 -85 -74 -15 -210 -51
-302 -81 -92 -30 -171 -54 -175 -54 -15 0 195 204 307 299 502 423 1037 642
1568 641 351 -1 627 -73 981 -255 92 -48 127 -62 133 -52 4 6 21 35 38 63 l30
52 -42 25 c-154 89 -369 180 -548 232 -809 233 -1663 -27 -2412 -734 -38 -35
-68 -60 -68 -56 0 19 118 229 185 330 245 369 569 627 954 760 502 172 1127
121 1712 -140 118 -52 209 -110 374 -239 523 -406 950 -888 1293 -1461 99
-166 269 -509 342 -689 132 -329 268 -824 312 -1132 2 -18 -37 -52 -217 -189
-121 -91 -221 -170 -223 -175 -2 -4 17 -56 42 -114 244 -570 381 -1401 337
-2036 -9 -127 -21 -205 -52 -340 -210 -913 -552 -1687 -1003 -2270 -44 -58
-165 -189 -267 -291 -203 -203 -277 -301 -370 -487 -101 -204 -152 -402 -189
-722 -31 -277 -68 -547 -96 -713 -14 -82 -24 -150 -22 -151 10 -8 129 -48 132
-45 16 16 78 428 121 794 33 291 41 340 75 471 44 167 118 331 219 484 39 59
107 136 227 255 462 459 794 1016 1088 1829 149 411 294 1003 350 1436 104
788 112 1340 31 2040 -111 949 -458 1834 -1010 2575 -317 427 -718 824 -1147
1136 -242 176 -623 322 -1019 390 -97 16 -175 22 -359 24 -129 2 -251 1 -270
-1z m-1645 -3348 c194 -37 377 -106 507 -191 90 -59 229 -198 286 -285 92
-139 169 -333 206 -520 52 -258 51 -226 52 -1431 0 -619 4 -1150 8 -1178 14
-109 65 -200 123 -222 13 -5 86 -9 162 -9 l138 0 6 -445 c4 -366 8 -450 20
-468 8 -12 48 -41 88 -63 41 -23 178 -100 304 -171 127 -71 299 -167 383 -213
84 -45 151 -88 149 -94 -2 -6 -207 -115 -455 -242 -249 -126 -460 -238 -470
-247 -18 -18 -17 -8 -50 -930 -6 -148 -12 -271 -15 -274 -8 -7 -107 23 -222
68 -265 103 -570 289 -877 535 -378 304 -869 804 -1268 1294 -408 499 -816
1076 -1085 1534 l-58 99 6 226 c3 124 13 282 21 351 75 607 268 1221 632 2008
95 204 366 748 403 808 18 29 23 31 137 48 222 32 269 35 529 31 180 -2 285
-8 340 -19z"/>
<path d="M5163 9734 c-344 -75 -647 -399 -807 -862 -40 -116 -45 -171 -18
-195 34 -31 248 -126 382 -171 417 -139 804 -140 1195 -6 148 51 317 133 362
177 33 30 34 35 28 75 -14 83 -77 264 -135 383 -131 272 -340 486 -550 566
-128 48 -323 63 -457 33z m331 -150 c268 -69 503 -337 626 -714 16 -50 30 -95
30 -99 0 -13 -209 -108 -308 -140 -188 -62 -276 -75 -502 -76 -232 0 -331 15
-540 81 -143 45 -320 122 -320 139 0 21 49 144 95 240 144 299 362 508 595
569 75 20 247 20 324 0z"/>
<path d="M9064 9749 c-409 -49 -722 -407 -812 -931 -19 -115 -15 -128 63 -187
143 -108 379 -189 645 -221 127 -15 406 -12 529 5 273 40 520 145 652 277 50
50 51 53 46 97 -18 146 -141 414 -264 574 -105 137 -264 264 -401 321 -133 56
-318 82 -458 65z m269 -165 c236 -52 446 -232 584 -502 62 -120 119 -274 109
-291 -11 -17 -141 -99 -192 -122 -167 -73 -336 -108 -554 -116 -323 -12 -622
48 -817 164 -73 43 -73 41 -39 174 95 373 297 618 570 689 90 24 242 26 339 4z"/>
</g>
</svg>
